<?xml version="1.0" encoding="UTF-8" standalone="no"?>
<svg width="42.284649mm" height="15.033911mm" version="1.1" viewBox="0 0 42.284651 15.03391" xmlns="http://www.w3.org/2000/svg">
<path d="M 40.6252,0 V 5.413 C 39.914,4.60302 39.025,4.1684 37.8199,4.1684 c -2.5485,0 -4.0697,2.3114 -4.0697,5.4328 0,3.2399 1.2446,5.413 3.9709,5.413 1.1261,0 2.1731,-0.49389 2.9436,-1.5804 l 0.15805,1.3631 h 1.4619 V 0.1979 Z m -2.3707,5.5118 c 0.96803,0 1.7978,0.49389 2.3707,1.3434 v 5.176 c -0.57291,0.86925 -1.3829,1.6595 -2.5682,1.6595 -1.6397,0 -2.509,-1.3829 -2.509,-4.0894 0,-2.746 0.98778,-4.0894 2.7065,-4.0894 z m -11.24,-1.3434 c 1.8768,0 2.9436,0.98778 3.7338,2.6868 l 0.31608,-2.4695 h 2.8843 v 1.2841 h -1.6397 v 7.843 h 1.6397 v 1.2841 h -5.413 v -1.2841 h 2.1138 V 9.1271 C 29.97779,6.8355 28.83198,5.6896 27.23178,5.6896 h -0.0988 V 7.922 h -1.3434 L 25.55251,4.3857 c 0.45438,-0.11853 0.889,-0.21731 1.4619,-0.21731 z M 25.7614,12.525 V 7.5268 c 0,-2.0546 -1.3039,-3.3585 -3.8919,-3.3585 -1.0273,0 -2.1336,0.19756 -3.4177,0.65194 l 0.45438,1.2644 c 1.0668,-0.37536 2.0151,-0.53342 2.7065,-0.53342 1.5409,0 2.4694,0.55316 2.4694,2.0743 v 0.84949 h -1.5409 c -3.1411,0 -4.8599,1.2051 -4.8599,3.3387 0,1.936 1.2644,3.2004 3.3584,3.2004 1.3434,0 2.509,-0.49389 3.2597,-1.4619 0.27658,0.94827 1.0075,1.3631 1.8965,1.4817 l 0.41487,-1.1853 c -0.59267,-0.1778 -0.84949,-0.49389 -0.84949,-1.3236 z m -4.3067,1.2446 c -1.3631,0 -1.9953,-0.67169 -1.9953,-1.9756 0,-1.3434 0.82973,-2.1731 3.1214,-2.1731 h 1.5014 v 2.667 c -0.61242,0.92852 -1.6002,1.4817 -2.6275,1.4817 z M 11.4187,0.0396 9.7592,0.2174 v 14.58 h 1.6595 V 7.2112 c 0.55316,-0.80997 1.62,-1.7187 2.7855,-1.7187 1.2446,0 1.8175,0.5334 1.8175,1.778 v 7.5269 h 1.6595 V 7.2508 c 0,-1.9361 -0.889,-3.0819 -2.9238,-3.0819 -1.2446,0 -2.509,0.57291 -3.3387,1.6595 z m -1.6595,10.984 c 0,-2.588 -1.857,-3.477 -3.9906,-4.0894 -2.588,-0.75072 -3.4177,-1.3434 -3.4177,-2.509 0,-1.3631 1.2248,-2.0151 2.7263,-2.0151 1.1458,0 2.2916,0.37536 3.2597,1.2248 L 9.3642,2.5286 C 8.2184,1.54082 6.875,0.9679 5.018,0.9679 c -2.6077,0 -4.4055,1.4619 -4.4055,3.5165 0,2.1534 1.6792,3.1411 4.3857,3.9314 2.3312,0.67169 2.9633,1.3236 2.9633,2.6472 0,1.7187 -1.5014,2.5287 -3.1609,2.5287 -1.6595,0 -2.825,-0.57291 -3.7733,-1.4619 L 0,13.2954 c 1.1458,1.1063 2.7855,1.7187 4.7809,1.7187 3.1609,0 4.9784,-1.6397 4.9784,-3.9906 z" fill="#ffffff" stroke-linecap="round" stroke-width="0.147" id="path1" />
</svg>